<svg xmlns="http://www.w3.org/2000/svg" width="1000" height="800" viewBox="0 0 1000 800"><rect width="1000" height="800" fill="#f7f3e9"/><g font-family="Arial,sans-serif" fill="#243737"><text x="55" y="48" font-size="30" font-weight="bold">Малый банк · план помещений</text><text x="55" y="81" font-size="19">18 × 14 м внутри · стены и проходы · мебель позже</text><rect x="140" y="125" width="720" height="560" fill="#ffffff"/><rect x="418.4" y="125" width="163.2" height="149.2" fill="#d9e7e6"/><rect x="140" y="125" width="720" height="560" fill="none" stroke="#465c5b" stroke-width="7"/><rect x="140" y="376.8666666666667" width="62.928" height="9.6" fill="#8c826d"/><rect x="264.6422857142857" y="376.8666666666667" width="158.21485714285714" height="9.6" fill="#8c826d"/><rect x="577.1428571428571" y="376.8666666666667" width="20.828571428571436" height="9.6" fill="#8c826d"/><rect x="659.6857142857143" y="376.8666666666667" width="200.31428571428563" height="9.6" fill="#8c826d"/><rect x="408.8" y="125" width="9.600000000000009" height="256.66666666666663" fill="#8c826d"/><rect x="581.5999999999999" y="125" width="9.600000000000009" height="256.66666666666663" fill="#8c826d"/><rect x="140" y="236.86666666666667" width="116.55771428571434" height="9.600000000000009" fill="#8c826d"/><rect x="307.9862857142857" y="236.86666666666667" width="105.61371428571427" height="9.600000000000009" fill="#8c826d"/><rect x="586.4" y="260.2" width="111.08571428571423" height="9.600000000000009" fill="#8c826d"/><rect x="748.9142857142858" y="260.2" width="111.08571428571423" height="9.600000000000009" fill="#8c826d"/><rect x="413.6" y="274.2" width="44.40000000000005" height="9.600000000000009" fill="#465c5b"/><rect x="542" y="274.2" width="44.39999999999998" height="9.600000000000009" fill="#465c5b"/><text text-anchor="middle" font-size="17" x="500" y="533.3333333333333"><tspan x="500" dy="0">Операционный зал</tspan></text><text text-anchor="middle" font-size="17" x="276.8" y="311.66666666666663"><tspan x="276.8" dy="0">Персонал</tspan></text><text text-anchor="middle" font-size="17" x="276.8" y="175.33333333333337"><tspan x="276.8" dy="0">Кабинет /</tspan><tspan x="276.8" dy="21">архив</tspan></text><text text-anchor="middle" font-size="17" x="500" y="322.33333333333337"><tspan x="500" dy="0">Доступ к</tspan><tspan x="500" dy="21">хранилищу</tspan></text><text text-anchor="middle" font-size="17" x="500" y="202"><tspan x="500" dy="0">Хранилище</tspan></text><text text-anchor="middle" font-size="17" x="723.1999999999999" y="315.33333333333337"><tspan x="723.1999999999999" dy="0">Комната</tspan><tspan x="723.1999999999999" dy="21">отдыха</tspan></text><text text-anchor="middle" font-size="17" x="723.1999999999999" y="195"><tspan x="723.1999999999999" dy="0">Переговорная</tspan></text><path d="M443.6,685 H556.4" stroke="#ffffff" stroke-width="9"/><text x="500" y="720" text-anchor="middle" font-size="20">Вход с улицы · дверь E</text><text x="55" y="770" font-size="16">Зонирование по world; хранилище встроено в заднюю часть банка и связано обычным проходом.</text></g></svg>