<svg xmlns="http://www.w3.org/2000/svg" width="36" height="44" viewBox="0 0 36 44">
  <path d="M13 25 L13 6 Q13 2 16 2 Q19 2 19 6 L19 18 Q21 15 24 18 Q27 15 29 20 Q33 18 33 23 L33 31 Q33 34 29 39 L14 39 Q11 34 7 30 L3 25 Q1 21 5 20 Q8 20 13 25 Z" fill="#d4c6a8" stroke="#10171b" stroke-width="3" stroke-linejoin="round"/>
  <path d="M16 6 L16 21 M21 20 L21 28 M26 21 L26 29 M30 24 L30 29" fill="none" stroke="#a38a61" stroke-width="1.4" stroke-linecap="round"/>
  <path d="M13 35 L30 35 L28 41 L15 41 Z" fill="#283238" stroke="#10171b" stroke-width="2" stroke-linejoin="round"/>
  <path d="M16 37.5 L27 37.5" stroke="#ad956c" stroke-width="1.3"/>
</svg>
